<?xml version="1.0" standalone="no"?>
<!DOCTYPE svg PUBLIC "-//W3C//DTD SVG 20010904//EN"
 "http://www.w3.org/TR/2001/REC-SVG-20010904/DTD/svg10.dtd">
<svg version="1.0" xmlns="http://www.w3.org/2000/svg"
 width="2641.000000pt" height="484.000000pt" viewBox="0 0 2641.000000 484.000000"
 preserveAspectRatio="xMidYMid meet">

<g transform="translate(0.000000,484.000000) scale(0.100000,-0.100000)"
fill="#000000" stroke="none">
<path d="M12828 4549 c-522 -42 -974 -244 -1378 -618 -41 -38 -73 -71 -70 -73
3 -3 81 -50 174 -106 l169 -103 111 108 c222 217 435 347 721 441 221 74 411
103 635 97 252 -7 462 -48 681 -135 626 -248 1080 -791 1224 -1468 23 -108 25
-112 19 -47 -19 238 -99 516 -213 744 -227 451 -635 823 -1108 1010 -303 120
-654 175 -965 150z"/>
<path d="M12875 4103 c-397 -30 -724 -158 -1029 -404 -42 -33 -76 -64 -76 -69
0 -4 76 -54 170 -110 l170 -102 77 72 c251 230 571 361 923 377 534 24 1048
-243 1351 -701 44 -65 79 -115 79 -110 0 17 -97 209 -135 269 -212 334 -568
602 -943 711 -173 50 -427 79 -587 67z"/>
<path d="M280 2440 l0 -1500 223 2 222 3 2 368 3 368 52 48 c404 369 794 721
800 721 3 0 28 -30 55 -67 27 -38 273 -377 547 -755 l498 -688 269 0 c209 0
268 3 263 12 -4 7 -60 84 -124 173 -140 192 -1126 1557 -1157 1601 l-22 31
635 583 c349 320 637 586 640 591 3 5 -134 9 -318 8 l-323 0 -380 -350 c-595
-548 -1419 -1299 -1428 -1302 -4 -1 -9 369 -10 823 l-2 825 -222 3 -223 2 0
-1500z"/>
<path d="M7472 2438 l3 -1503 215 0 215 0 1 33 c1 17 2 340 3 717 l1 685 343
0 c377 0 416 -5 531 -61 84 -41 166 -106 215 -172 39 -51 131 -226 471 -892
84 -165 158 -303 164 -307 12 -8 449 -10 470 -2 9 3 -28 85 -122 267 -228 447
-583 1159 -579 1163 2 2 37 8 78 14 222 28 416 149 547 342 97 142 147 359
123 531 -26 183 -97 325 -230 458 -122 121 -257 191 -423 218 -39 6 -439 10
-1046 10 l-982 1 2 -1502z m2049 1031 c69 -33 129 -91 166 -161 25 -48 28 -63
28 -153 0 -86 -3 -106 -24 -145 -36 -67 -59 -95 -108 -130 -96 -69 -67 -67
-898 -74 -412 -3 -756 -2 -763 2 -10 7 -13 83 -12 343 0 184 0 338 0 342 0 4
350 6 778 5 l777 -3 56 -26z"/>
<path d="M15930 2440 l0 -1500 220 0 220 0 0 715 0 715 950 0 950 0 0 -715 0
-715 220 0 220 0 0 1500 0 1500 -220 0 -220 0 0 -565 0 -565 -950 0 -950 0 0
565 0 565 -220 0 -220 0 0 -1500z"/>
<path d="M23150 2440 l0 -1500 220 0 220 0 0 368 0 369 425 386 c233 213 428
387 432 387 7 -1 291 -390 938 -1287 l160 -222 268 -1 c147 0 267 2 267 5 0 5
-383 537 -1063 1477 -131 180 -237 331 -236 335 0 6 946 878 1226 1130 l58 53
-326 0 -325 0 -340 -312 c-707 -649 -1473 -1348 -1479 -1348 -3 0 -5 374 -5
830 l0 830 -220 0 -220 0 0 -1500z"/>
<path d="M5222 3687 c-51 -100 -161 -317 -245 -482 -84 -165 -240 -471 -346
-680 -107 -209 -226 -443 -266 -520 -40 -77 -152 -297 -250 -490 -98 -192
-204 -401 -237 -462 l-59 -113 248 0 248 0 155 305 c85 168 155 305 156 305 1
0 61 -33 135 -73 74 -41 228 -125 343 -187 l209 -112 36 17 c20 9 137 72 261
139 124 68 264 144 311 170 l86 46 106 -208 c58 -114 128 -250 155 -302 l50
-95 247 -3 247 -2 -125 242 c-68 134 -193 378 -277 543 -84 165 -199 390 -255
500 -56 110 -185 362 -285 560 -100 198 -202 396 -225 440 -23 44 -104 202
-179 350 -75 149 -139 275 -144 282 -5 7 -43 -58 -100 -170z m273 -1132 c92
-181 237 -465 321 -631 85 -166 154 -304 154 -307 0 -4 -295 -7 -655 -7 -360
0 -655 2 -655 5 0 3 47 97 104 208 147 288 316 618 441 865 60 117 111 209
115 205 4 -4 83 -156 175 -338z"/>
<path d="M20868 3748 c-32 -62 -138 -270 -236 -463 -98 -192 -261 -512 -361
-710 -101 -198 -234 -459 -296 -580 -62 -121 -185 -364 -275 -540 -90 -176
-185 -361 -211 -412 -27 -50 -49 -94 -49 -97 0 -3 110 -6 244 -6 l244 0 152
298 c84 163 155 300 159 304 3 4 53 -19 111 -51 319 -176 571 -311 581 -311 7
0 84 40 173 89 89 48 202 110 251 136 50 27 130 70 179 97 48 27 89 48 90 46
2 -2 49 -94 105 -206 56 -111 126 -248 154 -302 l52 -100 243 0 c133 0 242 3
242 6 0 4 -61 126 -136 273 -75 146 -193 376 -262 511 -68 135 -171 335 -227
445 -56 110 -182 358 -280 550 -98 193 -221 436 -275 540 -53 105 -143 281
-200 393 -57 111 -106 202 -109 202 -4 0 -32 -51 -63 -112z m237 -1183 c92
-181 239 -471 327 -642 l160 -313 -662 0 -661 0 104 203 c58 111 178 346 267
522 136 267 214 420 282 548 5 10 11 17 12 15 2 -1 78 -151 171 -333z"/>
<path d="M11076 3635 c-31 -29 -65 -99 -66 -134 0 -65 436 -402 835 -646 241
-147 716 -373 901 -429 18 -6 21 -14 21 -59 0 -115 65 -221 167 -275 71 -37
188 -38 265 -3 l52 25 42 -40 c169 -161 546 -424 867 -606 334 -190 806 -391
875 -374 29 8 72 68 81 115 7 32 3 37 -77 113 -205 195 -528 430 -865 628
-173 102 -522 275 -674 334 l-115 45 -7 58 c-16 123 -71 203 -173 254 -58 28
-71 31 -142 28 -61 -3 -90 -10 -130 -30 l-50 -27 -74 66 c-425 377 -1062 761
-1580 952 -98 36 -118 37 -153 5z"/>
<path d="M12820 3578 c-173 -15 -383 -86 -533 -181 l-69 -44 159 -96 c87 -53
166 -99 175 -102 10 -4 37 10 75 39 190 146 483 215 728 173 157 -28 305 -86
425 -166 86 -58 88 -58 42 -6 -239 276 -609 417 -1002 383z"/>
<path d="M11031 2140 c0 -14 6 -71 14 -128 149 -1051 1046 -1824 2115 -1823
441 0 848 121 1208 358 144 95 416 322 402 336 -3 3 -81 51 -174 107 l-169
101 -101 -99 c-124 -121 -173 -161 -303 -246 -479 -313 -1101 -387 -1658 -196
-669 230 -1159 792 -1310 1503 -13 61 -24 101 -24 87z"/>
<path d="M11607 1693 c3 -10 27 -63 53 -118 263 -551 832 -917 1460 -939 362
-12 735 95 1040 299 94 63 212 157 218 174 2 5 -74 55 -168 112 l-171 102 -52
-50 c-156 -149 -315 -247 -516 -317 -341 -119 -714 -111 -1046 21 -326 130
-620 382 -781 669 -35 63 -49 80 -37 47z"/>
<path d="M12380 1497 c108 -105 185 -161 310 -223 156 -78 319 -115 505 -116
187 0 332 28 494 96 98 41 244 127 233 138 -16 16 -327 198 -338 198 -6 0 -17
-7 -24 -15 -23 -27 -146 -103 -217 -133 -132 -56 -232 -76 -388 -76 -150 -1
-221 11 -357 60 -93 34 -147 61 -232 118 -38 25 -71 46 -75 46 -3 0 37 -42 89
-93z"/>
</g>
</svg>
